<?xml version="1.0"?>
<svg xmlns="http://www.w3.org/2000/svg" viewBox="0 0 64 64" width="512" height="512"><g id="Web_malware" data-name="Web malware"><path d="M59,2H5A3,3,0,0,0,2,5V59a3,3,0,0,0,3,3H59a3,3,0,0,0,3-3V5A3,3,0,0,0,59,2ZM4,5A1,1,0,0,1,5,4H59a1,1,0,0,1,1,1v9H4ZM60,59a1,1,0,0,1-1,1H5a1,1,0,0,1-1-1V16H60Z"/><path d="M57,6H29a1,1,0,0,0-1,1v4a1,1,0,0,0,1,1H57a1,1,0,0,0,1-1V7A1,1,0,0,0,57,6Zm-1,4H30V8H56Z"/><path d="M9,6a3,3,0,1,0,3,3A3,3,0,0,0,9,6Zm0,4a1,1,0,1,1,1-1A1,1,0,0,1,9,10Z"/><path d="M16,6a3,3,0,1,0,3,3A3,3,0,0,0,16,6Zm0,4a1,1,0,1,1,1-1A1,1,0,0,1,16,10Z"/><path d="M23,6a3,3,0,1,0,3,3A3,3,0,0,0,23,6Zm0,4a1,1,0,1,1,1-1A1,1,0,0,1,23,10Z"/><path d="M25.287,43.877a12.831,12.831,0,0,0,.424,1.561l-4.083,1.633a1,1,0,0,0-.6,1.172l1,4A1,1,0,0,0,23,53a.976.976,0,0,0,.244-.03,1,1,0,0,0,.727-1.213L23.182,48.6l3.332-1.333C27.787,49.556,29.752,51,32,51s4.213-1.444,5.486-3.729L40.818,48.6l-.788,3.153a1,1,0,0,0,.727,1.213A.976.976,0,0,0,41,53a1,1,0,0,0,.969-.757l1-4a1,1,0,0,0-.6-1.172l-4.083-1.633a12.831,12.831,0,0,0,.424-1.561l3.792-.758,2.638,4.4a1,1,0,0,0,1.714-1.03l-3-5A1,1,0,0,0,42.8,41.02l-3.831.766c.014-.26.027-.52.027-.786a14.686,14.686,0,0,0-.177-2.252l3.936-1.575,3.534,3.534a1,1,0,0,0,1.414-1.414l-4-4a1,1,0,0,0-1.079-.222l-4.267,1.707A11.409,11.409,0,0,0,37.7,35.14l4.864-3.313A1,1,0,0,0,43,31V26a1,1,0,0,0-2,0v4.471L36.627,33.45a7.094,7.094,0,0,0-1.8-1.623A3.945,3.945,0,0,0,35.445,27,3.932,3.932,0,0,0,36,25a4,4,0,0,0-1.016-2.667,1,1,0,1,0-1.491,1.334A2,2,0,0,1,34,25a1.958,1.958,0,0,1-.084.511,3.848,3.848,0,0,0-3.832,0A1.958,1.958,0,0,1,30,25a2,2,0,0,1,.507-1.333,1,1,0,1,0-1.491-1.334A4,4,0,0,0,28,25a3.932,3.932,0,0,0,.555,2,3.945,3.945,0,0,0,.618,4.825,7.094,7.094,0,0,0-1.8,1.623L23,30.471V26a1,1,0,0,0-2,0v5a1,1,0,0,0,.437.827L26.3,35.14a11.409,11.409,0,0,0-.662,1.638l-4.267-1.707a1,1,0,0,0-1.079.222l-4,4a1,1,0,1,0,1.414,1.414l3.534-3.534,3.936,1.575A14.686,14.686,0,0,0,25,41c0,.266.013.526.027.786L21.2,41.02a1,1,0,0,0-1.053.465l-3,5a1,1,0,1,0,1.714,1.03l2.638-4.4ZM37,41c0,3.79-1.749,7.066-4,7.831V33.169C35.251,33.934,37,37.21,37,41ZM30,29a2,2,0,1,1,2,2A2,2,0,0,1,30,29Zm1,4.169V48.831c-2.251-.765-4-4.041-4-7.831S28.749,33.934,31,33.169Z"/><path d="M32,58A20,20,0,1,0,12,38,20.023,20.023,0,0,0,32,58Zm0-38A18,18,0,1,1,14,38,18.021,18.021,0,0,1,32,20Z"/></g></svg>
